<svg xmlns="http://www.w3.org/2000/svg" width="384pt" height="384pt" viewBox="0 0 384 384" version="1.1" class="iconadda">
<g>
<g id="Balloons_free_icon_2_qys14y0-0"><path style=" stroke:none;fill-rule:nonzero;fill:#caafeb;fill-opacity:1;" d="M 161.847656 311.398438 C 163.882812 310.390625 166.671875 309.007812 171.628906 309.007812 C 176.585938 309.007812 179.375 310.390625 181.40625 311.398438 C 182.964844 312.171875 183.902344 312.636719 186.265625 312.636719 C 188.628906 312.636719 189.566406 312.171875 191.125 311.398438 C 193.160156 310.390625 195.949219 309.007812 200.90625 309.007812 C 205.863281 309.007812 208.652344 310.390625 210.6875 311.398438 C 210.871094 311.488281 211.046875 311.574219 211.214844 311.65625 C 212.316406 312.191406 213.535156 311.167969 213.199219 309.988281 C 209.214844 295.875 198.773438 265.773438 186.476562 265.773438 C 174.222656 265.773438 163.847656 295.546875 159.820312 309.75 C 159.484375 310.9375 160.714844 311.960938 161.820312 311.410156 L 161.851562 311.394531 Z M 161.847656 311.398438 " />
</g><g id="Balloons_free_icon_2_qys14y0-1"><path style=" stroke:none;fill-rule:nonzero;fill:#bb95e3;fill-opacity:1;" d="M 213.195312 309.988281 C 209.210938 295.875 198.769531 265.773438 186.472656 265.773438 C 185.183594 265.773438 183.917969 266.105469 182.675781 266.710938 C 188.476562 276.675781 192.996094 290.339844 195.320312 298.570312 C 195.652344 299.75 194.4375 300.773438 193.335938 300.238281 C 193.167969 300.15625 192.992188 300.070312 192.808594 299.980469 C 190.773438 298.972656 187.984375 297.589844 183.027344 297.589844 C 178.070312 297.589844 175.28125 298.972656 173.246094 299.980469 C 171.6875 300.753906 170.75 301.21875 168.386719 301.21875 C 166.023438 301.21875 165.085938 300.753906 163.527344 299.980469 C 163.347656 299.890625 163.15625 299.796875 162.964844 299.703125 C 161.828125 303.023438 160.777344 306.375 159.816406 309.753906 C 159.480469 310.941406 160.710938 311.964844 161.816406 311.414062 L 161.847656 311.398438 C 163.882812 310.390625 166.671875 309.007812 171.628906 309.007812 C 176.585938 309.007812 179.375 310.390625 181.40625 311.398438 C 182.964844 312.171875 183.902344 312.636719 186.265625 312.636719 C 188.628906 312.636719 189.566406 312.171875 191.125 311.398438 C 193.160156 310.390625 195.949219 309.007812 200.90625 309.007812 C 205.863281 309.007812 208.652344 310.390625 210.6875 311.398438 C 210.871094 311.488281 211.046875 311.574219 211.214844 311.65625 C 212.320312 312.191406 213.535156 311.167969 213.199219 309.988281 Z M 213.195312 309.988281 " />
</g><g id="Balloons_free_icon_2_qys14y0-2"><path style=" stroke:none;fill-rule:nonzero;fill:#e27f87;fill-opacity:1;" d="M 60.878906 222.578125 C 63.140625 222.347656 66.234375 222.03125 70.875 223.773438 C 75.515625 225.515625 77.640625 227.789062 79.191406 229.449219 C 80.378906 230.71875 81.09375 231.488281 83.304688 232.316406 C 85.515625 233.148438 86.558594 233.039062 88.289062 232.863281 C 90.550781 232.632812 93.644531 232.316406 98.285156 234.058594 C 102.925781 235.800781 105.050781 238.074219 106.601562 239.734375 C 106.742188 239.882812 106.875 240.027344 107.003906 240.160156 C 107.851562 241.046875 109.347656 240.515625 109.449219 239.292969 C 110.679688 224.679688 111.480469 192.828125 99.96875 188.507812 C 88.5 184.203125 68.320312 208.433594 59.558594 220.3125 C 58.828125 221.304688 59.621094 222.695312 60.847656 222.570312 L 60.878906 222.566406 Z M 60.878906 222.578125 " />
</g><g id="Balloons_free_icon_2_qys14y0-3"><path style=" stroke:none;fill-rule:nonzero;fill:#dd626f;fill-opacity:1;" d="M 99.964844 188.515625 C 98.992188 188.148438 97.949219 188.003906 96.863281 188.027344 C 98.667969 199.289062 98.109375 213.292969 97.40625 221.65625 C 97.304688 222.878906 95.804688 223.410156 94.960938 222.523438 C 94.828125 222.378906 94.691406 222.238281 94.558594 222.09375 C 93.007812 220.433594 90.882812 218.160156 86.242188 216.417969 C 81.601562 214.675781 78.503906 214.992188 76.246094 215.222656 C 74.515625 215.398438 73.472656 215.503906 71.261719 214.675781 C 69.050781 213.847656 68.335938 213.078125 67.148438 211.808594 L 67.148438 211.804688 C 66.984375 211.628906 66.820312 211.453125 66.652344 211.277344 C 64.199219 214.222656 61.832031 217.238281 59.554688 220.320312 C 58.824219 221.3125 59.617188 222.703125 60.84375 222.578125 L 60.875 222.574219 C 63.136719 222.34375 66.230469 222.027344 70.871094 223.769531 C 75.511719 225.511719 77.636719 227.785156 79.1875 229.445312 C 80.375 230.714844 81.089844 231.480469 83.300781 232.3125 C 85.511719 233.144531 86.554688 233.035156 88.285156 232.859375 C 90.546875 232.628906 93.640625 232.3125 98.28125 234.054688 C 102.921875 235.796875 105.046875 238.070312 106.597656 239.730469 C 106.738281 239.878906 106.871094 240.023438 107 240.15625 C 107.847656 241.042969 109.34375 240.511719 109.445312 239.289062 C 110.675781 224.675781 111.476562 192.828125 99.964844 188.503906 Z M 99.964844 188.515625 " />
</g><g id="Balloons_free_icon_2_qys14y0-4"><path style=" stroke:none;fill-rule:nonzero;fill:#9cc6fc;fill-opacity:1;" d="M 334.015625 235.617188 C 335.292969 233.738281 337.039062 231.164062 341.355469 228.726562 C 345.671875 226.289062 348.78125 226.125 351.046875 226.003906 C 352.78125 225.910156 353.832031 225.855469 355.886719 224.695312 C 357.945312 223.535156 358.535156 222.667969 359.511719 221.226562 C 360.789062 219.347656 362.535156 216.773438 366.851562 214.335938 C 371.167969 211.898438 374.277344 211.734375 376.542969 211.613281 C 376.746094 211.601562 376.941406 211.59375 377.128906 211.582031 C 378.351562 211.503906 378.90625 210.015625 378.039062 209.152344 C 367.632812 198.820312 343.746094 177.734375 333.035156 183.777344 C 322.363281 189.796875 327.960938 220.828125 331.433594 235.179688 C 331.722656 236.378906 333.300781 236.664062 333.992188 235.644531 L 333.996094 235.644531 C 334.003906 235.632812 334.011719 235.625 334.015625 235.617188 Z M 334.015625 235.617188 " />
</g><g id="Balloons_free_icon_2_qys14y0-5"><path style=" stroke:none;fill-rule:nonzero;fill:#7fb3fc;fill-opacity:1;" d="M 378.042969 209.152344 C 367.636719 198.820312 343.75 177.734375 333.039062 183.777344 C 332.195312 184.253906 331.464844 184.902344 330.816406 185.667969 C 341 191.429688 352.082031 201.480469 358.316406 207.675781 C 359.1875 208.539062 358.628906 210.027344 357.40625 210.105469 C 357.21875 210.117188 357.023438 210.128906 356.820312 210.136719 C 354.550781 210.257812 351.445312 210.421875 347.128906 212.859375 C 342.8125 215.296875 341.0625 217.871094 339.789062 219.75 C 338.8125 221.1875 338.222656 222.054688 336.164062 223.21875 C 334.109375 224.378906 333.058594 224.433594 331.324219 224.527344 C 330.6875 224.5625 329.984375 224.601562 329.207031 224.691406 L 329.210938 224.691406 C 329.859375 228.207031 330.601562 231.703125 331.4375 235.179688 C 331.726562 236.378906 333.304688 236.664062 333.996094 235.644531 L 334.015625 235.617188 C 335.292969 233.738281 337.039062 231.164062 341.355469 228.726562 C 345.671875 226.289062 348.78125 226.125 351.046875 226.003906 C 352.78125 225.910156 353.832031 225.855469 355.886719 224.695312 C 357.945312 223.535156 358.535156 222.667969 359.511719 221.226562 C 360.789062 219.347656 362.535156 216.773438 366.851562 214.335938 C 371.167969 211.898438 374.277344 211.734375 376.546875 211.613281 C 376.75 211.601562 376.945312 211.59375 377.132812 211.582031 C 378.355469 211.503906 378.910156 210.015625 378.042969 209.152344 Z M 378.042969 209.152344 " />
</g><g id="Balloons_free_icon_2_qys14y0-6"><path style=" stroke:none;fill-rule:nonzero;fill:#e27f87;fill-opacity:1;" d="M 158.191406 38.609375 C 148.664062 34.996094 138.007812 39.789062 134.394531 49.320312 L 119.117188 89.601562 L 71.167969 71.417969 L 86.445312 31.136719 C 90.058594 21.605469 85.265625 10.953125 75.734375 7.339844 C 66.203125 3.722656 55.550781 8.519531 51.9375 18.050781 L 6.746094 137.203125 C 3.132812 146.734375 7.925781 157.386719 17.457031 161 C 26.738281 164.59375 37.648438 159.914062 41.253906 150.289062 L 58.082031 105.921875 L 106.03125 124.105469 L 89.203125 168.472656 C 85.589844 178.003906 90.382812 188.65625 99.914062 192.269531 C 109.195312 195.863281 120.105469 191.183594 123.710938 181.558594 L 147.082031 119.9375 L 168.902344 62.402344 C 172.515625 52.871094 167.722656 42.21875 158.191406 38.601562 Z M 158.191406 38.609375 " />
</g><g id="Balloons_free_icon_2_qys14y0-7"><path style=" stroke:none;fill-rule:nonzero;fill:#dd626f;fill-opacity:1;" d="M 158.191406 38.609375 C 157.011719 38.160156 155.789062 37.832031 154.542969 37.632812 C 156.292969 41.941406 156.351562 46.757812 154.695312 51.105469 L 132.875 108.640625 L 109.503906 170.261719 C 106.363281 178.644531 97.683594 183.273438 89.359375 181.953125 C 91.222656 186.542969 94.914062 190.378906 99.914062 192.273438 C 109.195312 195.867188 120.105469 191.1875 123.710938 181.5625 L 147.082031 119.941406 L 168.902344 62.40625 C 172.515625 52.878906 167.71875 42.222656 158.191406 38.609375 Z M 158.191406 38.609375 " />
</g><g id="Balloons_free_icon_2_qys14y0-8"><path style=" stroke:none;fill-rule:nonzero;fill:#9cc6fc;fill-opacity:1;" d="M 366.671875 79.980469 C 356.660156 60.902344 342.871094 46.761719 326.796875 39.082031 C 308.238281 30.21875 287.644531 30.785156 268.800781 40.671875 L 237.785156 56.949219 C 228.871094 61.402344 225.21875 73.28125 230.082031 81.976562 L 286.558594 189.585938 C 291.066406 199.195312 303.066406 204.347656 312.691406 198.980469 C 313.628906 198.484375 335.714844 186.785156 344.484375 181.984375 C 362.003906 172.394531 373.542969 156.140625 376.972656 136.21875 C 380.03125 118.441406 376.371094 98.46875 366.667969 79.980469 Z M 326.769531 149.609375 C 323.269531 151.523438 317.421875 154.660156 311.71875 157.699219 C 304.980469 144.960938 296.03125 128.023438 291.453125 119.300781 L 291.453125 119.304688 C 284.746094 106.546875 278.027344 93.792969 271.304688 81.039062 L 285.949219 73.351562 C 311.816406 59.773438 329.261719 88.117188 333.988281 97.128906 C 343.835938 115.894531 345.421875 139.398438 326.765625 149.609375 Z M 326.769531 149.609375 " />
</g><g id="Balloons_free_icon_2_qys14y0-9"><path style=" stroke:none;fill-rule:nonzero;fill:#7fb3fc;fill-opacity:1;" d="M 366.671875 79.980469 C 357.871094 63.214844 346.15625 50.265625 332.539062 42.164062 C 339.984375 49.375 346.558594 58.28125 352.007812 68.667969 C 361.710938 87.160156 365.371094 107.132812 362.3125 124.90625 C 358.882812 144.828125 347.34375 161.082031 329.824219 170.671875 C 321.050781 175.472656 298.964844 187.171875 298.03125 187.667969 C 294.367188 189.714844 290.355469 190.226562 286.542969 189.554688 L 286.5625 189.589844 C 291.070312 199.199219 303.070312 204.351562 312.695312 198.984375 C 313.632812 198.488281 335.71875 186.789062 344.488281 181.988281 C 362.007812 172.398438 373.546875 156.144531 376.976562 136.222656 C 380.035156 118.445312 376.378906 98.472656 366.671875 79.984375 Z M 366.671875 79.980469 " />
</g><g id="Balloons_free_icon_2_qys14y0-10"><path style=" stroke:none;fill-rule:nonzero;fill:#ddc8f2;fill-opacity:1;" d="M 231.574219 177.5 C 235.851562 170.207031 238.105469 161.902344 238.097656 153.449219 C 238.097656 127.105469 216.664062 105.671875 190.320312 105.671875 L 153.304688 105.671875 C 143.113281 105.671875 134.851562 113.933594 134.851562 124.125 L 134.851562 251.5625 C 134.65625 261.507812 143.445312 270.257812 153.386719 270.015625 C 153.726562 270.015625 187.539062 269.863281 196.785156 269.863281 C 225.875 269.863281 249.539062 246.195312 249.539062 217.109375 C 249.539062 201.339844 242.574219 187.175781 231.574219 177.5 Z M 190.320312 142.578125 C 196.3125 142.578125 201.191406 147.453125 201.191406 153.449219 C 201.191406 159.441406 196.316406 164.320312 190.320312 164.320312 C 187.570312 164.320312 171.757812 164.355469 171.757812 164.355469 L 171.757812 142.582031 L 190.320312 142.582031 Z M 196.785156 232.957031 C 192.078125 232.957031 181.378906 232.992188 171.757812 233.03125 L 171.757812 201.277344 C 173.492188 201.269531 196.785156 201.257812 196.785156 201.257812 C 205.523438 201.257812 212.632812 208.367188 212.632812 217.105469 C 212.632812 225.84375 205.523438 232.953125 196.785156 232.953125 Z M 196.785156 232.957031 " />
</g><g id="Balloons_free_icon_2_qys14y0-11"><path style=" stroke:none;fill-rule:nonzero;fill:#caafeb;fill-opacity:1;" d="M 231.574219 177.5 C 235.851562 170.207031 238.105469 161.902344 238.097656 153.449219 C 238.097656 127.105469 216.664062 105.671875 190.320312 105.671875 L 184.144531 105.671875 C 204.351562 111.703125 219.125 130.449219 219.125 152.59375 L 219.128906 152.59375 C 219.136719 161.257812 216.828125 169.769531 212.445312 177.242188 C 223.722656 187.160156 230.859375 201.675781 230.859375 217.835938 C 230.859375 242.574219 214.15625 263.46875 191.4375 269.871094 C 193.613281 269.867188 195.457031 269.863281 196.785156 269.863281 C 225.875 269.863281 249.539062 246.195312 249.539062 217.109375 C 249.539062 201.339844 242.574219 187.175781 231.574219 177.5 Z M 231.574219 177.5 " />
</g><g id="Balloons_free_icon_2_qys14y0-12"><path style=" stroke:none;fill-rule:nonzero;fill:#000001;fill-opacity:1;" d="M 381.945312 205.226562 C 376.820312 200.136719 365.261719 189.261719 353.871094 182.675781 C 369.125 172.023438 379.164062 156.125 382.429688 137.164062 C 385.695312 118.195312 381.839844 96.976562 371.570312 77.414062 C 366.003906 66.804688 359.285156 57.589844 351.605469 50.03125 L 351.609375 50.027344 C 349.421875 47.914062 345.945312 47.957031 343.8125 50.121094 C 341.679688 52.285156 341.691406 55.765625 343.839844 57.917969 C 350.699219 64.671875 356.734375 72.964844 361.769531 82.554688 C 370.910156 99.972656 374.375 118.699219 371.519531 135.28125 C 368.382812 153.507812 357.839844 168.367188 341.828125 177.128906 C 333.410156 181.734375 312.488281 192.824219 310.101562 194.089844 L 309.996094 194.148438 C 307.117188 195.753906 303.703125 196.046875 300.382812 194.976562 C 296.476562 193.722656 293.152344 190.730469 291.464844 187.015625 L 234.988281 79.40625 L 234.917969 79.277344 C 233.332031 76.445312 233.023438 72.882812 234.0625 69.503906 C 235.101562 66.125 237.363281 63.355469 240.261719 61.90625 L 240.359375 61.855469 L 271.375 45.578125 C 288.632812 36.519531 307.46875 35.988281 324.410156 44.082031 L 324.40625 44.082031 C 327.15625 45.351562 330.417969 44.171875 331.722656 41.441406 C 333.027344 38.707031 331.894531 35.433594 329.179688 34.089844 C 309.007812 24.457031 286.652344 25.054688 266.226562 35.773438 L 235.257812 52.027344 C 229.691406 54.828125 225.398438 60.007812 223.476562 66.246094 C 221.558594 72.476562 222.191406 79.167969 225.210938 84.613281 L 281.605469 192.058594 C 284.640625 198.441406 290.238281 203.339844 296.984375 205.515625 C 299.363281 206.289062 301.847656 206.6875 304.347656 206.691406 C 308.191406 206.695312 311.972656 205.71875 315.332031 203.851562 C 316.039062 203.476562 318.289062 202.285156 321.332031 200.667969 C 321.019531 213.78125 324.335938 229.351562 326.058594 236.480469 C 326.707031 239.15625 328.867188 241.199219 331.578125 241.691406 C 334.257812 242.1875 337.0625 241.027344 338.597656 238.726562 C 339.726562 237.066406 340.890625 235.347656 344.078125 233.546875 C 346.515625 232.171875 348.300781 231.785156 349.902344 231.632812 L 355.59375 252.621094 C 356.96875 257.691406 355.816406 262.90625 352.429688 266.921875 C 349.042969 270.9375 344.109375 272.960938 338.871094 272.460938 L 336.398438 272.226562 C 319.570312 270.621094 304.804688 282.523438 302.785156 299.308594 C 301.589844 309.269531 293.121094 316.777344 283.089844 316.777344 L 277.925781 316.777344 C 263.308594 316.777344 250.414062 326.628906 246.570312 340.730469 C 245.351562 345.179688 242.6875 349.09375 238.996094 351.859375 C 237.820312 352.738281 237.039062 354.046875 236.828125 355.5 C 236.621094 356.953125 236.996094 358.429688 237.875 359.605469 C 239.714844 362.070312 243.195312 362.546875 245.625 360.726562 L 245.621094 360.726562 C 251.289062 356.480469 255.378906 350.472656 257.253906 343.640625 C 259.789062 334.34375 268.289062 327.847656 277.925781 327.847656 L 283.089844 327.847656 C 298.71875 327.847656 311.914062 316.144531 313.777344 300.625 C 315.074219 289.851562 324.550781 282.222656 335.347656 283.246094 L 337.820312 283.480469 C 346.589844 284.3125 355.214844 280.789062 360.890625 274.054688 C 366.566406 267.320312 368.582031 258.222656 366.277344 249.722656 L 360.472656 228.3125 C 362.316406 226.945312 363.21875 225.625 364.089844 224.335938 C 365.21875 222.675781 366.382812 220.957031 369.574219 219.15625 C 372.761719 217.355469 374.835938 217.246094 376.886719 217.136719 C 379.824219 217.148438 382.527344 215.382812 383.554688 212.609375 L 383.554688 212.613281 C 384.519531 210.046875 383.886719 207.15625 381.945312 205.226562 Z M 364.136719 209.519531 C 358.6875 212.59375 356.339844 216.054688 354.933594 218.121094 C 354.113281 219.328125 354.097656 219.351562 353.171875 219.875 C 352.246094 220.398438 352.21875 220.398438 350.753906 220.476562 C 348.257812 220.609375 344.085938 220.832031 338.636719 223.90625 C 337.417969 224.589844 336.246094 225.367188 335.140625 226.226562 C 332.898438 214.890625 331.503906 202.308594 333.027344 194.441406 C 336.328125 192.679688 339.625 190.914062 342.457031 189.386719 C 349.980469 192.253906 359.929688 199.90625 368.34375 207.570312 C 366.890625 208.101562 365.480469 208.753906 364.136719 209.519531 Z M 364.136719 209.519531 " />
</g><g id="Balloons_free_icon_2_qys14y0-13"><path style=" stroke:none;fill-rule:nonzero;fill:#000001;fill-opacity:1;" d="M 321.347656 72.441406 C 309.503906 63.011719 296.375 61.632812 283.378906 68.453125 L 268.734375 76.140625 L 268.734375 76.136719 C 267.433594 76.820312 266.457031 77.996094 266.019531 79.398438 C 265.582031 80.800781 265.722656 82.320312 266.410156 83.621094 C 273.128906 96.371094 279.84375 109.121094 286.550781 121.878906 C 291.144531 130.628906 300.109375 147.597656 306.824219 160.292969 C 308.167969 162.957031 311.714844 164.046875 314.324219 162.589844 C 321.328125 158.851562 326.410156 156.121094 329.425781 154.46875 C 351.378906 142.453125 350 115.722656 338.894531 94.5625 C 336.148438 89.335938 330.222656 79.507812 321.347656 72.445312 Z M 324.113281 144.757812 L 324.109375 144.757812 C 320.75 146.585938 317.386719 148.402344 314.011719 150.199219 C 307.738281 138.328125 300.367188 124.378906 296.355469 116.730469 L 296.355469 116.734375 C 290.507812 105.605469 284.652344 94.484375 278.789062 83.367188 L 288.523438 78.257812 C 297.585938 73.5 306.066406 74.429688 314.449219 81.105469 C 322.007812 87.121094 327.203125 96.117188 329.085938 99.707031 C 337.675781 116.074219 339.46875 136.351562 324.105469 144.757812 Z M 171.757812 169.890625 L 171.769531 169.890625 C 171.769531 169.890625 187.570312 169.855469 190.320312 169.855469 C 199.367188 169.855469 206.726562 162.496094 206.726562 153.449219 C 206.726562 144.402344 199.367188 137.042969 190.320312 137.042969 L 171.757812 137.042969 C 170.289062 137.042969 168.878906 137.625 167.839844 138.664062 C 166.804688 139.703125 166.21875 141.109375 166.21875 142.578125 L 166.21875 164.351562 C 166.21875 165.824219 166.804688 167.230469 167.84375 168.269531 L 167.847656 168.273438 C 168.882812 169.308594 170.289062 169.890625 171.757812 169.890625 Z M 177.292969 148.117188 L 190.320312 148.117188 C 193.261719 148.117188 195.65625 150.511719 195.65625 153.453125 C 195.65625 156.394531 193.261719 158.789062 190.320312 158.789062 C 188.644531 158.789062 182.136719 158.800781 177.292969 158.8125 Z M 177.292969 148.117188 " />
</g><g id="Balloons_free_icon_2_qys14y0-14"><path style=" stroke:none;fill-rule:nonzero;fill:#000001;fill-opacity:1;" d="M 222.035156 256.996094 C 214.488281 261.792969 205.726562 264.335938 196.785156 264.328125 C 188.28125 264.328125 159.25 264.453125 153.519531 264.480469 C 150.183594 264.621094 146.800781 263.253906 144.222656 260.6875 C 141.71875 258.195312 140.320312 254.910156 140.386719 251.675781 L 140.386719 124.125 C 140.386719 117.003906 146.179688 111.207031 153.304688 111.207031 L 190.320312 111.207031 C 213.613281 111.207031 232.5625 130.15625 232.5625 153.445312 C 232.5625 160.90625 230.570312 168.257812 226.796875 174.699219 L 226.796875 174.703125 C 225.457031 176.992188 225.929688 179.90625 227.917969 181.65625 C 238.140625 190.648438 244.003906 203.566406 244.003906 217.105469 L 244.003906 217.109375 C 244.007812 225.484375 241.777344 233.707031 237.539062 240.933594 C 235.992188 243.570312 236.875 246.960938 239.511719 248.507812 C 242.148438 250.058594 245.542969 249.175781 247.089844 246.539062 C 252.320312 237.613281 255.078125 227.453125 255.078125 217.109375 C 255.078125 201.855469 249.0625 187.246094 238.433594 176.378906 C 241.855469 169.21875 243.628906 161.382812 243.632812 153.449219 C 243.632812 124.050781 219.71875 100.136719 190.320312 100.136719 L 160.515625 100.136719 L 174.082031 64.367188 C 176.355469 58.375 176.15625 51.859375 173.527344 46.015625 C 170.898438 40.171875 166.148438 35.703125 160.160156 33.429688 C 154.167969 31.15625 147.652344 31.355469 141.808594 33.984375 C 135.964844 36.613281 131.496094 41.363281 129.222656 47.355469 L 115.910156 82.460938 L 78.3125 68.203125 L 91.625 33.097656 C 93.898438 27.105469 93.699219 20.589844 91.070312 14.746094 C 88.441406 8.902344 83.691406 4.433594 77.703125 2.160156 C 71.710938 -0.113281 65.191406 0.0820312 59.351562 2.714844 C 53.507812 5.34375 49.039062 10.09375 46.765625 16.085938 L 13.921875 102.671875 C 13.402344 104.042969 13.449219 105.566406 14.050781 106.90625 C 14.652344 108.246094 15.765625 109.289062 17.136719 109.808594 C 19.921875 110.886719 23.195312 109.484375 24.277344 106.59375 L 57.113281 20.011719 C 58.320312 16.800781 60.761719 14.207031 63.890625 12.8125 C 67.011719 11.394531 70.570312 11.289062 73.773438 12.511719 C 76.980469 13.71875 79.574219 16.160156 80.972656 19.289062 C 82.386719 22.410156 82.492188 25.96875 81.269531 29.171875 L 65.992188 69.453125 C 65.472656 70.824219 65.519531 72.347656 66.121094 73.6875 C 66.722656 75.027344 67.832031 76.070312 69.207031 76.589844 L 117.15625 94.773438 L 117.15625 94.777344 C 118.527344 95.296875 120.050781 95.25 121.390625 94.648438 C 122.730469 94.046875 123.773438 92.933594 124.292969 91.5625 L 139.570312 51.28125 C 140.777344 48.074219 143.21875 45.480469 146.347656 44.082031 C 149.46875 42.667969 153.027344 42.5625 156.230469 43.785156 C 159.4375 44.992188 162.03125 47.429688 163.429688 50.558594 C 164.84375 53.683594 164.953125 57.242188 163.726562 60.441406 L 148.488281 100.621094 C 137.558594 102.855469 129.3125 112.546875 129.3125 124.125 L 129.3125 151.222656 C 129.269531 151.316406 129.226562 151.40625 129.191406 151.503906 L 118.527344 179.621094 C 117.328125 182.824219 114.917969 185.371094 111.746094 186.792969 C 108.605469 188.199219 105.023438 188.316406 101.875 187.097656 L 101.878906 187.097656 C 98.667969 185.890625 96.078125 183.449219 94.679688 180.320312 C 93.265625 177.199219 93.15625 173.640625 94.378906 170.4375 L 111.207031 126.070312 C 111.726562 124.695312 111.683594 123.171875 111.078125 121.835938 C 110.476562 120.496094 109.367188 119.449219 107.992188 118.929688 L 60.046875 100.746094 C 57.1875 99.664062 53.992188 101.101562 52.90625 103.957031 L 36.070312 148.34375 C 34.871094 151.546875 32.460938 154.09375 29.289062 155.515625 C 26.148438 156.921875 22.566406 157.039062 19.417969 155.820312 L 19.421875 155.820312 C 16.210938 154.617188 13.621094 152.175781 12.222656 149.046875 C 10.804688 145.925781 10.699219 142.367188 11.921875 139.164062 L 15.5 129.726562 L 15.503906 129.726562 C 16.585938 126.867188 15.148438 123.671875 12.289062 122.585938 C 9.429688 121.503906 6.234375 122.941406 5.148438 125.800781 L 1.570312 135.238281 C -0.703125 141.230469 -0.503906 147.746094 2.125 153.589844 C 4.753906 159.433594 9.503906 163.902344 15.457031 166.160156 C 21.304688 168.425781 28 168.230469 33.816406 165.621094 C 39.710938 162.980469 44.191406 158.222656 46.429688 152.25 L 61.292969 113.058594 L 98.890625 127.316406 L 84.027344 166.507812 C 81.753906 172.5 81.953125 179.015625 84.582031 184.859375 C 84.804688 185.355469 85.050781 185.839844 85.304688 186.316406 C 73.164062 193.625 60.421875 209.820312 55.097656 217.035156 C 51.460938 221.652344 55.621094 228.886719 61.4375 228.082031 C 63.433594 227.878906 65.5 227.667969 68.925781 228.953125 C 72.351562 230.238281 73.769531 231.757812 75.140625 233.222656 C 75.8125 233.941406 76.496094 234.671875 77.417969 235.382812 C 73.597656 246.789062 76.285156 259.3125 84.488281 268.132812 L 106.101562 291.382812 L 106.105469 291.394531 C 110.519531 296.128906 112.96875 302.363281 112.960938 308.839844 L 112.960938 321.429688 C 112.960938 335.859375 124.699219 347.597656 139.128906 347.597656 C 147.453125 347.597656 154.222656 354.371094 154.222656 362.691406 L 154.222656 377.882812 L 154.222656 377.878906 C 154.222656 380.9375 156.703125 383.414062 159.757812 383.414062 C 162.816406 383.414062 165.296875 380.9375 165.296875 377.878906 L 165.296875 362.6875 C 165.296875 348.257812 153.558594 336.519531 139.128906 336.519531 C 130.804688 336.519531 124.035156 329.746094 124.035156 321.425781 L 124.035156 308.835938 L 124.035156 308.839844 C 124.042969 299.566406 120.535156 290.636719 114.214844 283.855469 L 92.601562 260.605469 C 89.914062 257.71875 88.0625 254.15625 87.246094 250.292969 C 86.433594 246.433594 86.6875 242.425781 87.980469 238.699219 L 88.066406 238.449219 C 88.328125 238.425781 88.589844 238.398438 88.847656 238.375 C 90.847656 238.171875 92.914062 237.960938 96.339844 239.246094 C 99.765625 240.53125 101.183594 242.050781 102.554688 243.519531 C 104.429688 245.800781 107.574219 246.75 110.339844 245.746094 L 110.339844 245.75 C 112.921875 244.835938 114.730469 242.496094 114.964844 239.769531 C 115.6875 231.199219 116.734375 211.664062 112.929688 198.101562 C 114.074219 197.78125 115.191406 197.378906 116.277344 196.894531 C 122.171875 194.253906 126.652344 189.496094 128.890625 183.523438 L 129.316406 182.402344 L 129.316406 251.507812 C 129.210938 257.730469 131.792969 263.929688 136.410156 268.527344 C 141.058594 273.152344 147.289062 275.703125 153.566406 275.546875 C 155.714844 275.539062 161.132812 275.515625 167.519531 275.488281 C 161.015625 286.71875 156.402344 301.5 154.492188 308.238281 L 154.492188 308.246094 C 153.742188 310.894531 154.621094 313.734375 156.738281 315.496094 C 158.867188 317.257812 161.835938 317.597656 164.308594 316.359375 C 166.105469 315.464844 167.96875 314.542969 171.628906 314.542969 C 175.285156 314.542969 177.148438 315.464844 178.949219 316.359375 C 179.578125 316.671875 180.21875 316.988281 180.941406 317.269531 L 180.941406 321.242188 L 180.9375 321.242188 C 180.929688 328.808594 183.773438 336.101562 188.898438 341.664062 C 195.78125 349.148438 195.59375 360.703125 188.476562 367.960938 L 182.554688 374.003906 C 181.527344 375.054688 180.957031 376.46875 180.972656 377.933594 C 180.988281 379.402344 181.582031 380.804688 182.632812 381.832031 C 184.816406 383.972656 188.320312 383.9375 190.460938 381.753906 L 196.382812 375.710938 C 207.628906 364.242188 207.921875 345.992188 197.050781 334.167969 L 197.050781 334.171875 C 193.804688 330.648438 192.003906 326.035156 192.011719 321.246094 L 192.011719 317.101562 C 192.566406 316.867188 193.078125 316.613281 193.585938 316.363281 C 195.382812 315.46875 197.246094 314.546875 200.90625 314.546875 C 204.566406 314.546875 206.425781 315.46875 208.222656 316.359375 C 210.777344 317.832031 214.03125 317.636719 216.300781 315.710938 C 218.394531 313.949219 219.265625 311.125 218.523438 308.488281 C 216.542969 301.46875 211.769531 286.171875 205.023438 274.820312 C 213.191406 273.660156 221.015625 270.769531 227.972656 266.339844 C 230.554688 264.703125 231.316406 261.277344 229.675781 258.699219 C 228.035156 256.117188 224.613281 255.355469 222.035156 256.996094 Z M 104.433594 230.855469 L 104.433594 230.851562 C 103.089844 230.082031 101.683594 229.421875 100.230469 228.878906 C 94.375 226.679688 90.214844 227.101562 87.726562 227.355469 C 86.273438 227.503906 86.246094 227.503906 85.25 227.132812 C 84.253906 226.757812 84.234375 226.738281 83.234375 225.667969 C 81.53125 223.84375 78.675781 220.785156 72.820312 218.589844 L 72.820312 218.59375 C 71.507812 218.09375 70.160156 217.695312 68.789062 217.398438 C 76.496094 207.804688 85.722656 198.25 92.859375 194.789062 C 94.433594 195.867188 96.128906 196.753906 97.914062 197.433594 C 99.050781 197.871094 100.21875 198.214844 101.410156 198.46875 C 104.320312 205.921875 104.929688 218.878906 104.433594 230.851562 Z M 200.90625 303.472656 C 194.648438 303.472656 190.902344 305.332031 188.664062 306.441406 C 187.355469 307.089844 187.328125 307.101562 186.265625 307.101562 C 185.203125 307.101562 185.175781 307.089844 183.863281 306.4375 C 181.625 305.328125 177.878906 303.46875 171.628906 303.46875 C 170.085938 303.46875 168.695312 303.582031 167.445312 303.769531 C 170.289062 295.136719 175.105469 282.511719 180.882812 275.441406 C 185.003906 275.425781 188.890625 275.414062 192.019531 275.40625 C 197.125 281.628906 201.988281 293.085938 205.53125 303.839844 L 205.527344 303.839844 C 204 303.589844 202.453125 303.464844 200.902344 303.472656 Z M 200.90625 303.472656 " />
</g><g id="Balloons_free_icon_2_qys14y0-15"><path style=" stroke:none;fill-rule:nonzero;fill:#000001;fill-opacity:1;" d="M 166.21875 233.03125 C 166.21875 236.089844 168.699219 238.566406 171.757812 238.566406 L 171.78125 238.566406 C 181.394531 238.527344 192.082031 238.492188 196.789062 238.492188 C 208.582031 238.492188 218.171875 228.898438 218.171875 217.105469 C 218.171875 205.3125 208.578125 195.722656 196.785156 195.722656 C 196.785156 195.722656 173.476562 195.734375 171.738281 195.742188 L 171.734375 195.742188 C 168.6875 195.753906 166.21875 198.230469 166.21875 201.277344 Z M 177.289062 206.808594 C 184.691406 206.800781 196.785156 206.796875 196.78125 206.796875 C 202.46875 206.796875 207.09375 211.421875 207.09375 217.109375 C 207.09375 222.796875 202.46875 227.421875 196.78125 227.421875 C 192.964844 227.421875 185.214844 227.445312 177.289062 227.476562 Z M 177.289062 206.808594 " />
</g></g>
</svg>